PathFileType	4	(X/Y/Z)	52_2_95_p1_0-194_filt_butterworth.trc
DataRate	CameraRate	NumFrames	NumMarkers	Units	OrigDataRate	OrigDataStartFrame	OrigNumFrames
59.0	59.0	5	27	m	59.0	97	194
Frame#	Time	RHip			RKnee			RAnkle			RBigToe			RSmallToe			RHeel			LHip			LKnee			LAnkle			LBigToe			LSmallToe			LHeel			Neck			Head			Nose			RShoulder			RElbow			RWrist			RThumb			RIndex			RPinky			LShoulder			LElbow			LWrist			LThumb			LIndex			LPinky			
		X1	Y1	Z1	X2	Y2	Z2	X3	Y3	Z3	X4	Y4	Z4	X5	Y5	Z5	X6	Y6	Z6	X7	Y7	Z7	X8	Y8	Z8	X9	Y9	Z9	X10	Y10	Z10	X11	Y11	Z11	X12	Y12	Z12	X13	Y13	Z13	X14	Y14	Z14	X15	Y15	Z15	X16	Y16	Z16	X17	Y17	Z17	X18	Y18	Z18	X19	Y19	Z19	X20	Y20	Z20	X21	Y21	Z21	X22	Y22	Z22	X23	Y23	Z23	X24	Y24	Z24	X25	Y25	Z25	X26	Y26	Z26	X27	Y27	Z27	
97	1.6440677966101696	0.21257767229725127	0.5694033853104715	0.4858963750258458	0.11494851411916346	0.6368788868909763	0.892510451522832	0.03882696784432267	0.7796019001339998	1.2674316176047453	0.007062710875697468	0.6171100775154825	1.3148251897566077	0.06915832878486462	0.638813809543266	1.3296818916330078	0.00130141332588307	0.8828881475931034	1.3210648971856602	0.005758027743964276	0.583312866215172	0.45083484819857383	-0.08043986326526861	0.6741416129548544	0.8612269812559094	-0.1494619146190109	0.7708937987682406	1.2310228124460194	-0.13766952341620914	0.6276493368738449	1.2758709511799449	-0.19723042108725666	0.6571782902508315	1.260059992976816	-0.145223071514947	0.832782884154041	1.2868489985015164	0.22928293981563516	0.4649705907870301	-0.010360818328454246	0.29945007445648375	0.3124798507816828	-0.24642744600236516	0.2670349605807849	0.33606997299510394	-0.0834471315101547	0.3605338619908296	0.45891360424078476	0.0316624606604818	0.473091989706919	0.556688171617293	0.2824755032337972	0.46249449662690945	0.4407507469457037	0.1155010769598002	0.40703852140330143	0.45364208595097577	-0.009236157246680723	0.41981830490232663	0.40668339961926436	-0.020258993088062373	0.4384955359458247	0.3812994967730924	0.043257515183776546	0.08427476184736786	0.436862552024082	-0.005733462975331138	-0.03731431740528026	0.33454789363442733	0.22121408983889404	0.04283076835391274	0.3732966016189392	0.04914584572302258	0.08861332511423536	0.4002099522723259	-0.02668225059207009	0.11378808822249951	0.3127426501149774	-0.05632949641404564	0.09351885923732689	0.3283970290144006	-0.02187864125722586
98	1.6610169491525424	0.21258113285239763	0.5694018202160885	0.4858598012891646	0.11451992190590007	0.6353924678718366	0.8921078209936852	0.038819206106387366	0.7795364432179805	1.2674154037217082	0.007036545422349678	0.6175109440200367	1.3149425065503013	0.06894768265457374	0.6385402457919646	1.331231783213	0.002931151555694704	0.8777058989827321	1.319655478843865	0.005065472861409777	0.5833770820662124	0.4509658323491559	-0.08031375504713051	0.6740712434463684	0.8609477685783107	-0.14951284894966638	0.7706327969409466	1.2302026668722938	-0.1376664671366112	0.6276043377356249	1.2758702072355383	-0.19738207452643802	0.6569230284317348	1.2611647578791452	-0.14530666373322246	0.832597618822077	1.286831948768528	0.2293018927823287	0.4660020985474719	-0.009949836232164068	0.29895516937027483	0.31167167253841943	-0.2460016950692628	0.2660521030084882	0.33224094053798847	-0.08324971349442077	0.35965197075367167	0.4554597416932814	0.033491939572030026	0.4654498833823555	0.5659836911497648	0.2915151880621994	0.4598501856002249	0.4382174887250677	0.12826830028826963	0.3991411581199112	0.4417317179879295	0.00021952465303946974	0.4140874289569345	0.37935236134074063	-0.0065589177377489444	0.4297739267934755	0.35765400786987955	0.05930566728615185	0.0855705573413032	0.4449208995928552	-0.005666550039510898	-0.03983864902548373	0.344916778884007	0.2283601292850112	0.04258631736123187	0.3760010880684835	0.0606972845662436	0.08981452738960749	0.41825114342143593	-0.019617673809984304	0.11413069884290325	0.3163697710348298	-0.040595928908926306	0.0938583584780772	0.3276417518569969	-0.009659913784290017
99	1.6779661016949152	0.2130345325684757	0.5696378892448986	0.4859503176959152	0.11450327760126956	0.6358471553012819	0.893195318185344	0.038578701733157854	0.7777411804007187	1.2667939746513108	0.007011126540935618	0.6184150016908558	1.3150432424857381	0.0688473598006617	0.6379704773753262	1.3323131540799644	0.003607068467456386	0.8752917681646044	1.3190860970509897	0.004758002154867947	0.5832483316762187	0.4510040275673117	-0.08026842225492187	0.6740194204017103	0.8609551367656533	-0.14930412331411055	0.7705734276869479	1.2298132088620566	-0.13763160524088572	0.6276520295459822	1.2759416899748275	-0.1975722078905351	0.6566840292605046	1.2626370287437412	-0.14545458065992883	0.8322496351302154	1.286869502688087	0.22944558158179645	0.46673920190889256	-0.009975664322389688	0.29778877558182315	0.30875570121092194	-0.24466041056173332	0.2649865457046673	0.32819556163691493	-0.08310108413923024	0.3583995281391567	0.45293498812078875	0.03679963705055146	0.45785345244354714	0.5801684260074782	0.2981967753474324	0.4553672862910068	0.43315978467084887	0.14371912770111867	0.3907682394440671	0.41723038050435496	0.016286802940443417	0.4075263616746613	0.34714470916930434	0.014106792415273918	0.4208150818984361	0.3358306575155476	0.08232932253183957	0.08529409867462946	0.447979981601804	-0.004923723413171491	-0.04305508334535773	0.36096299251168573	0.23440164827231325	0.04375248650966375	0.3711531129913244	0.07234153367340587	0.09209588490584822	0.4191462600025988	-0.01375105661631482	0.11460363610936669	0.31757987867515286	-0.027457579581427645	0.09629842681788056	0.3169368033221637	0.005155678649868231
100	1.694915254237288	0.2141271573833819	0.570150412517172	0.4862226706986201	0.11458901837421438	0.6369700495328915	0.8949246258878678	0.03794777511252893	0.7732191988274781	1.2651900311869473	0.006951286445988025	0.6189741252372829	1.3149169329845252	0.06873583757800122	0.6377623084237047	1.3327221534269176	0.0036484874447249953	0.8746729874624101	1.3191056398754766	0.005165646365891843	0.5831150592479006	0.45105055585861636	-0.08025879355806899	0.67398940452175	0.860994512317727	-0.14920158341397738	0.7705366080500778	1.229684577249743	-0.13757675678114287	0.6279061307330677	1.2761271243371788	-0.19770339979230717	0.6566363305156616	1.263665301210344	-0.14556021323866675	0.8318674254081879	1.2868488560535427	0.2295644548579335	0.46674932716304995	-0.010098127841876539	0.2960642261268098	0.3036646873630299	-0.24285524557925428	0.2636870844481654	0.3230437256262285	-0.08295613074920292	0.35824085948194767	0.4549748181717724	0.04089891455997993	0.45023526636796163	0.5986207656903775	0.30194413143389404	0.44723144222269684	0.4266469044633426	0.16610929335291566	0.3874376775527842	0.38148849690464787	0.0431031000585955	0.4042536096159015	0.3182299642169394	0.04662288295542185	0.41526661772658247	0.3237857432544091	0.11411368457912441	0.08309524222906771	0.4449606352184702	-0.00227921071980466	-0.04825597370678621	0.3883151693473046	0.2393298157162595	0.04546492430418533	0.3599536243119072	0.0849128353524798	0.09486665655427781	0.39668874719970204	-0.007616371925384711	0.11478839279836786	0.31119067798339767	-0.016962004551681807	0.09986115708922619	0.29920888472655555	0.02328155307414945
101	1.7118644067796611	0.21547637683401805	0.5706398635663125	0.48676151776964893	0.1146183699196842	0.6378761205121799	0.8963778677840474	0.03709885426193464	0.7672519134218106	1.263050422082365	0.006731921289473835	0.6176027571434771	1.3142947078825413	0.06875245968863669	0.63748742749093	1.3325907209957972	0.003340989861276316	0.8751605972532126	1.3193910196530265	0.006077701916493658	0.5832648725898605	0.4515619687892011	-0.08024260906609929	0.6739688194301695	0.8609489963663273	-0.14928515568748155	0.7704357079772997	1.2296773842518653	-0.13752628477838805	0.6283233144828053	1.2763789219017527	-0.1976977437985848	0.6568759677923413	1.2636493805217102	-0.14563212282755456	0.8316765539990165	1.2868912401961443	0.2295473300548157	0.4662206355833259	-0.010163697035445755	0.2942925912372637	0.29772598480898416	-0.24131661916342084	0.26222082240549793	0.317090222946537	-0.08264341144929593	0.3591460240096338	0.4612628596804368	0.045112184476784264	0.44252482705048546	0.6200995325625702	0.3031667879631901	0.4368218882033619	0.4226189238993005	0.1969642187959597	0.3923397967357544	0.3415655708665483	0.08267229013904166	0.4069625446149451	0.29605261143544587	0.09325309269867604	0.41324437127963265	0.32120459802825635	0.15646218062611805	0.08029476474859198	0.4392972021874266	0.0020763724577530095	-0.05536159395105179	0.4268627801675661	0.24304090333161624	0.04586474708203519	0.3471916135292205	0.10109820128312731	0.09686660322628902	0.3605745332778237	0.001922803538267649	0.11216675667919676	0.30035605761014017	-0.0050242507424195625	0.10167970775421356	0.28050824297873184	0.04473215182050255
